<?xml version="1.0" standalone="no"?>
<!DOCTYPE svg PUBLIC "-//W3C//DTD SVG 20010904//EN"
 "http://www.w3.org/TR/2001/REC-SVG-20010904/DTD/svg10.dtd">
<svg version="1.0" xmlns="http://www.w3.org/2000/svg"
 width="512.000000pt" height="512.000000pt" viewBox="0 0 512.000000 512.000000"
 preserveAspectRatio="xMidYMid meet">
<metadata>
Created by potrace 1.14, written by Peter Selinger 2001-2017
</metadata>
<g transform="translate(0.000000,512.000000) scale(0.100000,-0.100000)"
fill="#000000" stroke="none">
<path d="M2311 4803 c-1 -6 -12 -10 -26 -8 -14 1 -25 -2 -25 -7 0 -5 -4 -7 -9
-3 -5 3 -30 1 -54 -4 -24 -6 -63 -13 -86 -16 -24 -3 -47 -8 -52 -11 -5 -3 -22
-7 -37 -10 -15 -3 -49 -11 -77 -19 -27 -8 -53 -14 -57 -15 -4 0 -28 -9 -53
-20 -25 -11 -49 -20 -53 -21 -25 -5 -44 -13 -145 -58 -37 -17 -71 -31 -75 -32
-4 -1 -20 -10 -37 -20 -16 -10 -52 -30 -80 -44 -27 -15 -90 -55 -140 -88 -89
-60 -102 -70 -130 -94 -7 -7 -19 -13 -25 -13 -6 0 -8 -4 -5 -10 3 -5 2 -10 -2
-10 -33 0 -286 -258 -378 -384 -16 -23 -33 -42 -37 -44 -5 -2 -8 -10 -8 -18 0
-8 -5 -14 -11 -14 -5 0 -7 -4 -4 -10 3 -5 2 -10 -3 -10 -10 0 -81 -111 -79
-121 1 -4 -5 -15 -15 -25 -26 -30 -150 -292 -153 -324 -1 -3 -6 -15 -13 -28
-7 -12 -10 -27 -7 -32 3 -6 1 -10 -6 -10 -7 0 -10 -3 -6 -6 3 -4 -1 -23 -9
-43 -9 -20 -18 -47 -21 -61 -9 -44 -11 -55 -13 -55 -3 0 -22 -94 -23 -112 0
-7 -3 -13 -6 -13 -3 0 -7 -12 -7 -27 -1 -16 -4 -44 -8 -63 -3 -19 -9 -57 -12
-85 -9 -69 -13 -465 -5 -465 3 0 6 -17 6 -38 0 -20 1 -41 4 -46 2 -5 5 -21 7
-35 8 -75 13 -102 29 -164 9 -37 18 -73 19 -80 1 -7 5 -18 9 -24 5 -7 6 -13 2
-13 -3 0 1 -16 9 -35 9 -20 16 -39 17 -43 2 -9 4 -17 20 -67 7 -22 19 -56 27
-75 9 -19 16 -37 17 -40 1 -3 11 -27 23 -53 12 -27 22 -53 22 -58 0 -5 5 -9
12 -9 6 0 8 -3 5 -6 -4 -4 2 -19 13 -34 11 -15 17 -30 13 -34 -3 -3 -1 -6 5
-6 7 0 12 -6 12 -14 0 -7 7 -19 15 -26 8 -7 13 -16 10 -20 -2 -4 4 -16 15 -27
10 -12 16 -24 13 -27 -4 -3 -1 -6 6 -6 7 0 10 -4 7 -9 -3 -5 1 -12 10 -15 8
-3 12 -10 9 -16 -3 -5 -2 -10 2 -10 5 0 19 -18 33 -40 14 -22 28 -40 32 -40 5
0 8 -7 8 -15 0 -8 5 -15 10 -15 6 0 10 -4 10 -10 0 -5 8 -18 18 -28 9 -10 37
-43 62 -73 68 -82 281 -289 297 -289 5 0 16 -8 24 -17 9 -10 26 -25 39 -33 12
-8 38 -27 58 -42 19 -16 39 -28 45 -28 5 0 18 -10 28 -22 11 -11 19 -17 19
-13 0 4 8 1 18 -7 23 -19 105 -66 113 -64 4 0 16 -8 28 -18 12 -11 21 -16 21
-12 0 4 15 -3 33 -16 17 -13 34 -23 37 -22 3 0 21 -6 40 -14 19 -9 37 -16 40
-17 3 -1 16 -6 30 -12 40 -16 144 -55 155 -57 6 -2 30 -9 55 -16 25 -8 47 -14
50 -15 26 -8 87 -19 94 -17 4 2 13 -2 20 -7 6 -6 32 -12 56 -15 25 -3 61 -8
80 -12 19 -3 54 -7 77 -8 24 0 43 -3 43 -6 0 -3 43 -5 96 -5 53 0 98 -3 99 -6
2 -3 26 -3 52 0 26 3 76 6 111 6 34 0 62 2 62 5 0 3 17 6 38 6 52 1 217 27
217 34 0 1 11 3 25 5 14 2 39 8 57 13 17 6 34 8 37 4 3 -3 6 0 6 5 0 6 8 10
17 9 10 -2 43 7 75 20 31 12 59 19 62 16 3 -3 6 -1 6 4 0 5 8 10 18 11 9 1 35
10 57 19 22 10 42 18 45 19 3 1 19 8 35 15 17 7 32 14 35 15 20 6 68 31 83 43
9 9 17 11 17 6 0 -5 4 -4 8 1 7 9 70 46 119 69 13 6 23 14 23 19 0 4 7 7 15 7
8 0 15 4 15 8 0 5 16 16 35 25 19 9 35 22 35 27 0 6 4 9 9 5 5 -3 12 -1 16 4
3 6 34 31 68 57 74 55 75 57 197 177 118 117 160 163 160 174 0 5 9 15 20 23
11 8 20 20 20 26 0 7 7 14 15 18 8 3 15 10 15 16 0 6 11 23 25 38 14 15 25 32
25 39 0 7 5 13 10 13 6 0 10 7 10 15 0 8 4 15 10 15 5 0 16 15 24 34 8 18 19
37 25 40 6 4 9 12 6 17 -4 5 -1 9 4 9 6 0 11 5 11 10 0 6 11 28 25 50 14 22
25 45 25 52 0 6 7 19 16 29 8 9 17 23 18 31 1 7 7 22 13 33 6 11 11 22 11 25
0 5 10 31 36 95 10 23 18 47 20 55 1 8 8 25 14 37 7 13 10 23 6 23 -3 0 -2 6
4 12 6 7 11 16 11 21 1 4 1 8 2 10 1 2 4 18 12 57 3 14 10 40 16 58 5 18 10
35 10 37 0 3 2 18 5 33 10 46 18 96 21 122 2 14 4 25 5 25 1 0 3 20 5 45 2 25
4 45 6 45 1 0 3 96 4 213 1 116 -1 212 -4 212 -3 0 -7 19 -7 43 -2 41 -8 89
-18 133 -7 33 -18 98 -19 112 0 6 -4 12 -8 12 -5 0 -6 6 -3 14 3 8 1 23 -5 34
-5 10 -12 32 -15 47 -6 34 -33 116 -53 163 -8 18 -16 41 -18 51 -2 10 -8 27
-13 37 -15 26 -25 58 -24 67 1 4 -3 7 -9 7 -5 0 -8 4 -5 9 4 5 1 11 -4 13 -6
2 -13 10 -15 18 -8 39 -18 60 -27 60 -5 0 -6 5 -3 10 3 6 1 10 -5 10 -6 0 -8
5 -5 10 3 6 2 10 -3 10 -4 0 -14 16 -22 35 -8 19 -17 35 -22 35 -4 0 -8 6 -8
14 0 7 -7 19 -15 26 -8 7 -12 16 -9 21 3 5 2 9 -3 9 -4 0 -21 21 -38 48 -29
46 -39 60 -61 85 -5 7 -22 29 -35 49 -14 21 -29 35 -32 31 -4 -3 -7 1 -7 10 0
9 -9 22 -20 30 -11 8 -17 17 -13 20 3 4 -2 7 -12 7 -10 0 -16 3 -12 6 5 6
-177 194 -189 194 -3 0 -19 14 -35 31 -16 17 -29 29 -29 26 0 -4 -12 5 -26 18
-15 14 -31 25 -36 25 -5 0 -6 5 -3 10 4 6 2 9 -3 8 -5 -2 -29 11 -53 28 -24
18 -47 31 -50 30 -3 0 -13 7 -23 16 -20 21 -133 88 -147 88 -5 0 -9 4 -9 9 0
8 -37 24 -52 22 -5 -1 -8 3 -8 8 0 5 -13 12 -30 16 -16 4 -30 11 -30 16 0 5
-6 9 -13 9 -7 0 -31 9 -53 19 -22 11 -52 23 -67 26 -15 4 -30 11 -32 16 -3 4
-12 6 -20 2 -8 -3 -15 0 -15 6 0 6 -10 11 -23 11 -13 0 -27 3 -31 8 -4 4 -12
8 -17 8 -5 1 -10 2 -11 4 -2 1 -10 3 -18 5 -8 2 -51 13 -95 25 -44 12 -97 23
-119 26 -21 2 -42 7 -48 10 -5 3 -30 8 -56 10 -92 9 -117 13 -117 15 0 1 -85
3 -190 4 -135 2 -192 0 -197 -9 -6 -8 -8 -8 -8 1 0 8 -9 9 -29 3 -21 -6 -31
-5 -35 3 -3 9 -5 9 -5 0z"/>
</g>
</svg>
